<?xml version="1.0" encoding="UTF-8"?>
<svg width="500" height="400" viewBox="0 0 500 400" fill="none" xmlns="http://www.w3.org/2000/svg">
  <!-- Background Elements -->
  <circle cx="250" cy="200" r="180" fill="#4361EE" fill-opacity="0.05"/>
  <circle cx="250" cy="200" r="150" stroke="#4361EE" stroke-width="2" stroke-dasharray="4 4"/>
  
  <!-- Bug Icon -->
  <g transform="translate(150, 100)">
    <path d="M100 50C100 77.6142 77.6142 100 50 100C22.3858 100 0 77.6142 0 50C0 22.3858 22.3858 0 50 0C77.6142 0 100 22.3858 100 50Z" fill="#4361EE" fill-opacity="0.1"/>
    <path d="M50 20V80" stroke="#4361EE" stroke-width="4" stroke-linecap="round"/>
    <path d="M20 50H80" stroke="#4361EE" stroke-width="4" stroke-linecap="round"/>
    <circle cx="50" cy="50" r="30" stroke="#4361EE" stroke-width="4"/>
    <path d="M35 35L65 65" stroke="#4361EE" stroke-width="4" stroke-linecap="round"/>
    <path d="M65 35L35 65" stroke="#4361EE" stroke-width="4" stroke-linecap="round"/>
  </g>
  
  <!-- Tracking Elements -->
  <g transform="translate(200, 250)">
    <rect x="0" y="0" width="100" height="60" rx="8" fill="white" stroke="#4361EE" stroke-width="2"/>
    <path d="M20 20H80" stroke="#4361EE" stroke-width="2"/>
    <path d="M20 40H60" stroke="#4361EE" stroke-width="2"/>
    <circle cx="70" cy="40" r="8" fill="#4361EE" fill-opacity="0.2"/>
    <path d="M66 40L74 40" stroke="#4361EE" stroke-width="2" stroke-linecap="round"/>
    <path d="M70 36L70 44" stroke="#4361EE" stroke-width="2" stroke-linecap="round"/>
  </g>
  
  <!-- Decorative Elements -->
  <circle cx="100" cy="100" r="10" fill="#4361EE" fill-opacity="0.2"/>
  <circle cx="400" cy="300" r="15" fill="#4361EE" fill-opacity="0.2"/>
  <circle cx="350" cy="150" r="8" fill="#4361EE" fill-opacity="0.2"/>
  <circle cx="150" cy="250" r="12" fill="#4361EE" fill-opacity="0.2"/>
</svg> 